<svg viewBox="0 0 512 512" xmlns="http://www.w3.org/2000/svg"><g id="Layer_2" data-name="Layer 2"><g id="Layer_2-2" data-name="Layer 2"><g id="_"><g id="Base" fill="#18703b"><path d="m510.79 232c-3.53-51.17-11.18-89.63-24.81-124.71-7.26-18.69-17.27-40-36.46-56.71-13.65-11.84-30.4-21-52.68-28.74-10.72-4.95-21.76-7.54-32.44-10l-.3-.07a479 479 0 0 0 -106.75-11.77c-8.72 0-17.66.22-26.57.65-41.09 2-76.41 7.86-108 18-24.05 7.7-42.29 16.85-57.32 28.74-13.12 10.27-23.52 23.85-32.72 42.75-11 22.71-18.94 48.46-24.83 81a499.14 499.14 0 0 0 -7.91 75.86v.36c0 .46.35 50.71 1 58.69 2.63 33.54 8.09 77.29 27.18 118.3l.27.59a60.26 60.26 0 0 0 7 12.29c9.16 16.35 22.55 29.21 40.9 39.27 28.18 15.51 58.09 22.51 81 26.88a500.47 500.47 0 0 0 62.89 7.71c11.09.6 22.35.91 33.46.91 15.44 0 31.08-.6 46.56-1.78 41.86-3.46 78-10.81 110.53-22.47 40.81-14.64 68.45-43.55 82.16-85.91 9.47-29.23 15.22-60 17.6-94.17a551 551 0 0 0 .24-75.67zm-13.43 74.74c-2.16 31-7.38 61.37-17 91-12.25 37.86-36.08 63.89-74 77.5-34.74 12.47-70.56 18.76-107.14 21.76a596.87 596.87 0 0 1 -78.21.84 483.77 483.77 0 0 1 -61.17-7.5c-26.84-5.11-53-12.19-77.09-25.46-15.3-8.38-27.83-19.59-36.22-35.09-2.79-3.29-4.54-7.19-6.33-11-16.78-36.07-22.91-74.55-26-113.74-.57-7.16-1-56.59-1-57.65a483.78 483.78 0 0 1 7.8-73.87c4.86-26.8 11.75-53 23.72-77.58 7.12-14.62 16-28 29-38.11 15.9-12.58 34.16-20.45 53.22-26.55 34-10.91 69-15.67 104.56-17.38 43.73-2.11 87 1 129.71 10.74 10.45 2.45 21 4.9 30.71 9.49 17.76 6.13 34.65 14 49 26.45 16 13.9 25.29 32.2 32.78 51.48 15.1 38.85 21.1 79.55 23.94 120.82a535 535 0 0 1 -.28 73.83zm-102.73-168.84c-3.21 0-8 1-12.54 6l-20.7 22.6a13.29 13.29 0 0 0 -2.46 14.06 155.14 155.14 0 0 1 6.16 16.8h-.91c-2.49 0-3.56-.39-4.07-.81l-3-13.63a13 13 0 0 0 -.35-1.26c-5.51-16.82-16.45-19.33-22.48-19.33-5.08 0-17.55 1.85-23.52 18.93a13.77 13.77 0 0 0 -.48 1.75l-3 15.09a7.21 7.21 0 0 1 -1 .06c-4.42 0-9.4-2.19-14.76-6.46-1.59-1.28-6.2-5.46-19.24-19-2-2.08-6.49-6.82-13.28-6.82-4.16 0-10 1.69-14.28 9.77l-24.92 48.55a13.28 13.28 0 0 0 3.48 16.4c21.84 17.6 26.15 25.23 27 27.21-.48.7-3.3 3.95-14.93 6.91a129.18 129.18 0 0 1 -32.19 3.88c-22.78 0-49.93-3.16-49.93-18.25 0-.85.15-3.54 1.59-10 1.52-6.84 2.23-11.75 2.23-15.46 0-7.35-.47-12-1.57-15.46v-.1c-3.06-9.44-11-15.07-21.23-15.07-20.82 0-29.37 28.12-32.6 38.72-5.34 17.62-8 33.43-8 47 0 29.77 11.16 52.25 33.15 66.78 17.32 11.51 40.79 17.34 69.75 17.34 35.41 0 62.76-8.52 81.28-25.33 14.99-13.77 24.17-32.84 27.17-56.86a47.17 47.17 0 0 0 8.7.83 32.61 32.61 0 0 0 23.53-9.85 46.64 46.64 0 0 0 29.49 9.85c13.61 0 32.19-7.16 43.34-41.31a177.75 177.75 0 0 0 8.46-55.23 126.29 126.29 0 0 0 -9.38-47.75c-3.05-7.78-9.49-10.55-14.51-10.55zm2.82 109.41q-10.5 32.16-30.72 32.16-19.91 0-30.89-18.15-8.11 18.15-22.13 18.15-9.87 0-20.85-6.21 0 87.57-96.48 87.57-39.65 0-62.41-15.13-27.21-18-27.22-55.72 0-18.48 7.48-43.15 8.92-29.29 19.9-29.3 6.69 0 8.6 5.89 1 3 1 11.47a65.83 65.83 0 0 1 -1.91 12.58 65.27 65.27 0 0 0 -1.92 12.89q0 31.53 63.21 31.53a142.34 142.34 0 0 0 35.5-4.3q25-6.37 25-20.06 0-11.47-32-37.26l24.84-48.4c1-1.81 1.8-2.71 2.55-2.71s2 .9 3.66 2.71q15.6 16.23 20.54 20.22 11.78 9.39 23.08 9.39 10.35 0 13.69-9.23l3.35-16.56q3.5-10 11-10 6.53 0 9.87 10.19l3.5 15.76q4.31 9.07 16.56 9.08 14.75-.03 14.75-10.72 0-5.73-7.8-24.52l20.69-22.61q3.35-3.66 4.94.48a112.51 112.51 0 0 1 8.43 42.83 163.69 163.69 0 0 1 -7.81 51.13z"/><path d="m409.15 148.45c-3.06-7.78-9.5-10.55-14.52-10.55-3.21 0-8 1-12.54 6l-20.7 22.6a13.29 13.29 0 0 0 -2.46 14.06 155.14 155.14 0 0 1 6.16 16.8h-.91c-2.49 0-3.56-.39-4.07-.81l-3-13.63a13 13 0 0 0 -.35-1.26c-5.51-16.82-16.45-19.33-22.48-19.33-5.08 0-17.55 1.85-23.52 18.93a13.77 13.77 0 0 0 -.48 1.75l-3 15.09a7.21 7.21 0 0 1 -1 .06c-4.42 0-9.4-2.19-14.76-6.46-1.59-1.28-6.2-5.46-19.24-19-2-2.08-6.49-6.82-13.28-6.82-4.16 0-10 1.69-14.28 9.77l-24.92 48.55a13.28 13.28 0 0 0 3.48 16.4c21.84 17.6 26.15 25.23 27 27.21-.48.7-3.3 3.95-14.93 6.91a129.18 129.18 0 0 1 -32.19 3.88c-22.78 0-49.93-3.16-49.93-18.25 0-.85.15-3.54 1.59-10 1.52-6.84 2.23-11.75 2.23-15.46 0-7.35-.47-12-1.57-15.46v-.1c-3.06-9.44-11-15.07-21.23-15.07-20.82 0-29.37 28.12-32.6 38.72-5.34 17.62-8 33.43-8 47 0 29.77 11.16 52.25 33.15 66.78 17.32 11.51 40.79 17.34 69.75 17.34 35.41 0 62.76-8.52 81.28-25.33 14.99-13.77 24.17-32.84 27.17-56.86a47.17 47.17 0 0 0 8.7.83 32.61 32.61 0 0 0 23.53-9.85 46.64 46.64 0 0 0 29.49 9.85c13.61 0 32.19-7.16 43.34-41.31a177.75 177.75 0 0 0 8.46-55.23 126.29 126.29 0 0 0 -9.37-47.75zm-11.7 98.86q-10.5 32.16-30.72 32.16-19.91 0-30.89-18.15-8.11 18.15-22.13 18.15-9.87 0-20.85-6.21 0 87.57-96.48 87.57-39.65 0-62.41-15.13-27.21-18-27.22-55.72 0-18.48 7.48-43.15 8.92-29.29 19.9-29.3 6.69 0 8.6 5.89 1 3 1 11.47a65.83 65.83 0 0 1 -1.91 12.58 65.27 65.27 0 0 0 -1.92 12.89q0 31.53 63.21 31.53a142.34 142.34 0 0 0 35.5-4.3q25-6.37 25-20.06 0-11.47-32-37.26l24.84-48.4c1-1.81 1.8-2.71 2.55-2.71s2 .9 3.66 2.71q15.6 16.23 20.54 20.22 11.78 9.39 23.08 9.39 10.35 0 13.69-9.23l3.35-16.56q3.5-10 11-10 6.53 0 9.87 10.19l3.5 15.76q4.31 9.07 16.56 9.08 14.75-.03 14.75-10.72 0-5.73-7.8-24.52l20.69-22.61q3.35-3.66 4.94.48a112.51 112.51 0 0 1 8.43 42.83 163.69 163.69 0 0 1 -7.81 51.13z"/></g></g></g></g></svg>